<mxfile host="65bd71144e">
    <diagram id="yAbkSRqzndlx4K0J-S8S" name="Page-1">
        <mxGraphModel dx="1646" dy="1627" grid="1" gridSize="10" guides="1" tooltips="1" connect="1" arrows="1" fold="1" page="1" pageScale="1" pageWidth="850" pageHeight="1100" math="0" shadow="0">
            <root>
                <mxCell id="0"/>
                <mxCell id="1" parent="0"/>
                <mxCell id="2" value="Application" style="rounded=0;whiteSpace=wrap;html=1;fontSize=25;fillColor=#e3c800;fontColor=#000000;strokeColor=#000000;" vertex="1" parent="1">
                    <mxGeometry x="220" y="70" width="320" height="40" as="geometry"/>
                </mxCell>
                <mxCell id="4" value="Transport" style="rounded=0;whiteSpace=wrap;html=1;fontSize=25;fillColor=#f0a30a;fontColor=#000000;strokeColor=#000000;" vertex="1" parent="1">
                    <mxGeometry x="220" y="110" width="320" height="40" as="geometry"/>
                </mxCell>
                <mxCell id="5" value="Network" style="rounded=0;whiteSpace=wrap;html=1;fontSize=25;fillColor=#fa6800;fontColor=#000000;strokeColor=#000000;" vertex="1" parent="1">
                    <mxGeometry x="220" y="150" width="320" height="40" as="geometry"/>
                </mxCell>
                <mxCell id="6" value="Data Link" style="rounded=0;whiteSpace=wrap;html=1;fontSize=25;fillColor=#e51400;fontColor=#000000;strokeColor=#000000;" vertex="1" parent="1">
                    <mxGeometry x="220" y="190" width="320" height="40" as="geometry"/>
                </mxCell>
                <mxCell id="7" value="Physical" style="rounded=0;whiteSpace=wrap;html=1;fontSize=25;fillColor=#e51400;fontColor=#000000;strokeColor=#000000;" vertex="1" parent="1">
                    <mxGeometry x="220" y="230" width="320" height="40" as="geometry"/>
                </mxCell>
                <mxCell id="8" value="5" style="text;html=1;strokeColor=none;fillColor=none;align=left;verticalAlign=middle;whiteSpace=wrap;rounded=0;fontSize=25;fontColor=#000000;" vertex="1" parent="1">
                    <mxGeometry x="220" y="75" width="60" height="30" as="geometry"/>
                </mxCell>
                <mxCell id="9" value="3" style="text;html=1;strokeColor=none;fillColor=none;align=left;verticalAlign=middle;whiteSpace=wrap;rounded=0;fontSize=25;fontColor=#000000;" vertex="1" parent="1">
                    <mxGeometry x="220" y="155" width="60" height="30" as="geometry"/>
                </mxCell>
                <mxCell id="10" value="4" style="text;html=1;strokeColor=none;fillColor=none;align=left;verticalAlign=middle;whiteSpace=wrap;rounded=0;fontSize=25;fontColor=#000000;" vertex="1" parent="1">
                    <mxGeometry x="220" y="115" width="60" height="30" as="geometry"/>
                </mxCell>
                <mxCell id="11" value="1" style="text;html=1;strokeColor=none;fillColor=none;align=left;verticalAlign=middle;whiteSpace=wrap;rounded=0;fontSize=25;fontColor=#000000;" vertex="1" parent="1">
                    <mxGeometry x="220" y="235" width="60" height="30" as="geometry"/>
                </mxCell>
                <mxCell id="12" value="2" style="text;html=1;strokeColor=none;fillColor=none;align=left;verticalAlign=middle;whiteSpace=wrap;rounded=0;fontSize=25;fontColor=#000000;" vertex="1" parent="1">
                    <mxGeometry x="220" y="195" width="60" height="30" as="geometry"/>
                </mxCell>
            </root>
        </mxGraphModel>
    </diagram>
</mxfile>